<?xml version="1.0" standalone="no"?>
<!DOCTYPE svg PUBLIC "-//W3C//DTD SVG 20010904//EN"
 "http://www.w3.org/TR/2001/REC-SVG-20010904/DTD/svg10.dtd">
<svg version="1.0" xmlns="http://www.w3.org/2000/svg"
 width="494.000000pt" height="505.000000pt" viewBox="0 0 494.000000 505.000000"
 preserveAspectRatio="xMidYMid meet">

<g transform="translate(0.000000,505.000000) scale(0.100000,-0.100000)"
fill="#000000" stroke="none">
<path d="M2139 4963 c-15 -2 -35 -13 -45 -25 -18 -19 -19 -63 -22 -1019 l-3
-999 -984 0 c-600 0 -993 -4 -1009 -10 -43 -16 -48 -56 -44 -407 3 -320 3
-323 26 -345 l23 -23 994 -3 995 -2 0 -958 c1 -526 5 -977 9 -1000 16 -81 -2
-77 391 -77 390 0 373 -3 390 71 6 22 10 465 10 1001 l0 963 1000 2 999 3 23
23 c23 22 23 25 26 345 4 351 -1 391 -44 407 -16 6 -410 10 -1014 10 l-990 0
-2 998 c-2 548 -7 1005 -11 1014 -5 9 -16 20 -25 24 -18 9 -647 15 -693 7z"/>
</g>
</svg>
